<svg width="151" height="150" viewBox="0 0 151 150" fill="none" xmlns="http://www.w3.org/2000/svg">
<g clip-path="url(#clip0_21_135)">
<path fill-rule="evenodd" clip-rule="evenodd" d="M40.917 0V49.8617H49.2504V8.31031H117.167V49.8617V50L117.531 49.9654L125.5 50V49.8617V0H40.917Z" fill="#3DA542"/>
<path fill-rule="evenodd" clip-rule="evenodd" d="M0.5 16.6205H32.5834V24.9568H8.85938V137.495C8.85938 139.796 10.7402 141.664 13.039 141.664H121.827C123.809 141.664 125.53 140.255 125.923 138.312L140.293 66.6379H47.0525L27.082 130.402L19.0988 127.917L40.9167 58.3016H150.5L134.124 139.947C132.954 145.773 127.78 150 121.827 150H13.039C6.12584 150 0.5 144.39 0.5 137.495V16.6205Z" fill="#3DA542"/>
<path fill-rule="evenodd" clip-rule="evenodd" d="M54.667 33.2411C54.667 26.3566 60.2635 20.7757 67.167 20.7757C74.0706 20.7757 79.6668 26.3566 79.6668 33.2411C79.6668 40.1255 74.0706 45.7066 67.167 45.7066C60.2635 45.7066 54.667 40.1255 54.667 33.2411ZM67.167 29.086C64.8658 29.086 63.0004 30.9463 63.0004 33.2411C63.0004 35.5359 64.8658 37.3962 67.167 37.3962C69.4682 37.3962 71.3337 35.5359 71.3337 33.2411C71.3337 30.9463 69.4682 29.086 67.167 29.086Z" fill="#3DA542"/>
<path fill-rule="evenodd" clip-rule="evenodd" d="M108.834 29.086H88V37.3963H108.834V29.086Z" fill="#3DA542"/>
</g>
<defs>
<clipPath id="clip0_21_135">
<rect width="150" height="150" fill="white" transform="translate(0.5)"/>
</clipPath>
</defs>
</svg>
