<svg width="106" height="106" viewBox="0 0 106 106" fill="none" xmlns="http://www.w3.org/2000/svg">
<path d="M34.0099 55.7154L44.8614 66.5669L71.99 39.4382" stroke="#3DA542" stroke-width="6" stroke-linecap="round" stroke-linejoin="round"/>
<path d="M4.32606 58.8494C2.55798 55.1501 2.55798 50.8497 4.32606 47.1504C5.09055 45.5509 6.39414 44.0214 9.00137 40.962C10.039 39.7444 10.5579 39.1356 10.9937 38.4853C11.9927 36.9948 12.6861 35.3209 13.0336 33.5605C13.1853 32.7925 13.2488 31.9952 13.3761 30.4004C13.6959 26.3935 13.8558 24.39 14.4461 22.7185C15.8116 18.8525 18.8525 15.8117 22.7185 14.4461C24.39 13.8558 26.3935 13.6959 30.4004 13.3761C31.9952 13.2489 32.7926 13.1852 33.5605 13.0336C35.3209 12.6861 36.9948 11.9927 38.4853 10.9937C39.1356 10.5579 39.7444 10.039 40.962 9.00135C44.0214 6.39412 45.551 5.09054 47.1505 4.3261C50.8497 2.55797 55.1502 2.55797 58.8494 4.3261C60.449 5.09054 61.9785 6.39412 65.038 9.00135C66.2556 10.039 66.8643 10.5579 67.5149 10.9937C69.0053 11.9927 70.6792 12.6861 72.4393 13.0336C73.2076 13.1852 74.0046 13.2489 75.5998 13.3761C79.6067 13.6959 81.6099 13.8558 83.2815 14.4461C87.1474 15.8117 90.1885 18.8525 91.5541 22.7185M14.4461 83.2815C15.8116 87.1473 18.8525 90.1884 22.7185 91.5541C24.39 92.1444 26.3935 92.3039 30.4004 92.624C31.9952 92.751 32.7926 92.815 33.5605 92.9664C35.3209 93.3142 36.9948 94.007 38.4853 95.0065C39.1355 95.4421 39.7444 95.9609 40.962 96.9988C44.0214 99.6059 45.551 100.91 47.1505 101.674C50.8497 103.442 55.1502 103.442 58.8494 101.674C60.449 100.91 61.9785 99.6059 65.038 96.9988C66.2556 95.9609 66.8643 95.4421 67.5149 95.0065C69.0053 94.007 70.6792 93.3142 72.4393 92.9664C73.2076 92.815 74.0046 92.751 75.5998 92.624C79.6067 92.3039 81.6099 92.1444 83.2815 91.5541C87.1474 90.1884 90.1885 87.1473 91.5541 83.2815C92.1445 81.6098 92.304 79.6066 92.6241 75.5997C92.7511 74.0051 92.8145 73.2075 92.9665 72.4397C93.3137 70.6791 94.0071 69.0053 95.0065 67.5148C95.4422 66.8643 95.9609 66.2555 96.9989 65.038C99.6059 61.9784 100.91 60.4489 101.674 58.8494C103.442 55.1501 103.442 50.8497 101.674 47.1504" stroke="#3DA542" stroke-width="6" stroke-linecap="round"/>
</svg>
