<svg width="33" height="32" viewBox="0 0 33 32" fill="none" xmlns="http://www.w3.org/2000/svg">
<path d="M3.59677 12.9032C3.59677 12.0481 2.90353 11.3548 2.04839 11.3548C1.19324 11.3548 0.5 12.0481 0.5 12.9032H3.59677ZM14.4355 32C15.2906 32 15.9839 31.3067 15.9839 30.4516C15.9839 29.5965 15.2906 28.9032 14.4355 28.9032V32ZM0.5 12.9032C0.5 13.7583 1.19324 14.4516 2.04839 14.4516C2.90353 14.4516 3.59677 13.7583 3.59677 12.9032H0.5ZM14.4355 3.09677C15.2906 3.09677 15.9839 2.40353 15.9839 1.54839C15.9839 0.693244 15.2906 0 14.4355 0V3.09677ZM2.04839 11.3548C1.19324 11.3548 0.5 12.0481 0.5 12.9032C0.5 13.7583 1.19324 14.4516 2.04839 14.4516V11.3548ZM14.4355 14.4516C15.2906 14.4516 15.9839 13.7583 15.9839 12.9032C15.9839 12.0481 15.2906 11.3548 14.4355 11.3548V14.4516ZM12.8871 12.9032C12.8871 13.7583 13.5804 14.4516 14.4355 14.4516C15.2906 14.4516 15.9839 13.7583 15.9839 12.9032H12.8871ZM15.9839 1.54839C15.9839 0.693244 15.2906 0 14.4355 0C13.5804 0 12.8871 0.693244 12.8871 1.54839H15.9839ZM15.9839 12.9032C15.9839 12.0481 15.2906 11.3548 14.4355 11.3548C13.5804 11.3548 12.8871 12.0481 12.8871 12.9032H15.9839ZM12.8871 20.129C12.8871 20.9842 13.5804 21.6774 14.4355 21.6774C15.2906 21.6774 15.9839 20.9842 15.9839 20.129H12.8871ZM14.4355 28.9032C13.5804 28.9032 12.8871 29.5965 12.8871 30.4516C12.8871 31.3067 13.5804 32 14.4355 32V28.9032ZM32.5 20.129C32.5 19.2739 31.8067 18.5806 30.9516 18.5806C30.0965 18.5806 29.4032 19.2739 29.4032 20.129H32.5ZM12.8871 30.4516C12.8871 31.3067 13.5804 32 14.4355 32C15.2906 32 15.9839 31.3067 15.9839 30.4516H12.8871ZM15.9839 20.129C15.9839 19.2739 15.2906 18.5806 14.4355 18.5806C13.5804 18.5806 12.8871 19.2739 12.8871 20.129H15.9839ZM14.4355 0C13.5804 0 12.8871 0.693244 12.8871 1.54839C12.8871 2.40353 13.5804 3.09677 14.4355 3.09677V0ZM29.4032 20.129C29.4032 20.9842 30.0965 21.6774 30.9516 21.6774C31.8067 21.6774 32.5 20.9842 32.5 20.129H29.4032ZM30.9516 21.6774C31.8067 21.6774 32.5 20.9842 32.5 20.129C32.5 19.2739 31.8067 18.5806 30.9516 18.5806V21.6774ZM14.4355 18.5806C13.5804 18.5806 12.8871 19.2739 12.8871 20.129C12.8871 20.9842 13.5804 21.6774 14.4355 21.6774V18.5806ZM0.5 12.9032V22.1935H3.59677V12.9032H0.5ZM0.5 22.1935C0.5 27.6096 4.8905 32 10.3065 32V28.9032C6.60079 28.9032 3.59677 25.8991 3.59677 22.1935H0.5ZM10.3065 32H14.4355V28.9032H10.3065V32ZM3.59677 12.9032V9.80645H0.5V12.9032H3.59677ZM3.59677 9.80645C3.59677 6.10079 6.60079 3.09677 10.3065 3.09677V0C4.8905 0 0.5 4.3905 0.5 9.80645H3.59677ZM10.3065 3.09677H14.4355V0H10.3065V3.09677ZM2.04839 14.4516H14.4355V11.3548H2.04839V14.4516ZM15.9839 12.9032V1.54839H12.8871V12.9032H15.9839ZM12.8871 12.9032V20.129H15.9839V12.9032H12.8871ZM14.4355 32H22.6935V28.9032H14.4355V32ZM22.6935 32C28.1096 32 32.5 27.6096 32.5 22.1935H29.4032C29.4032 25.8991 26.3991 28.9032 22.6935 28.9032V32ZM32.5 22.1935V20.129H29.4032V22.1935H32.5ZM15.9839 30.4516V20.129H12.8871V30.4516H15.9839ZM14.4355 3.09677H22.6935V0H14.4355V3.09677ZM22.6935 3.09677C26.3991 3.09677 29.4032 6.10079 29.4032 9.80645H32.5C32.5 4.3905 28.1096 0 22.6935 0V3.09677ZM29.4032 9.80645V20.129H32.5V9.80645H29.4032ZM30.9516 18.5806H14.4355V21.6774H30.9516V18.5806Z" fill="#F2F2F8"/>
</svg>
