<svg width="32" height="32" viewBox="0 0 32 32" fill="none" xmlns="http://www.w3.org/2000/svg">
<path fill-rule="evenodd" clip-rule="evenodd" d="M32 16C32 24.8365 24.8365 32 16 32C7.16344 32 0 24.8365 0 16C0 7.16344 7.16344 0 16 0C24.8365 0 32 7.16344 32 16ZM22.4485 11.1515C22.9171 11.6201 22.9171 12.3799 22.4485 12.8485L14.4485 20.8485C13.9798 21.3171 13.2202 21.3171 12.7515 20.8485L9.55147 17.6485C9.08285 17.1798 9.08285 16.4202 9.55147 15.9515C10.0201 15.4829 10.7799 15.4829 11.2485 15.9515L13.6 18.3029L17.1757 14.7272L20.7515 11.1515C21.2202 10.6828 21.9798 10.6828 22.4485 11.1515Z" fill="#3DA542"/>
</svg>
