<svg width="100" height="100" viewBox="0 0 100 100" fill="none" xmlns="http://www.w3.org/2000/svg">
<path d="M91.6666 62.5C91.6666 78.2133 91.6666 81.9037 86.785 86.785C81.9037 91.6667 74.0466 91.6667 58.3333 91.6667" stroke="#3DA542" stroke-width="10" stroke-linecap="round"/>
<path d="M41.6666 8.33337C25.9531 8.33337 18.0964 8.33337 13.2149 13.2149C8.33331 18.0965 8.33331 21.7865 8.33331 37.5" stroke="#3DA542" stroke-width="10" stroke-linecap="round"/>
<path d="M50 29.1666C37.8028 29.1666 29.5015 35.6759 24.5517 41.4175C22.0728 44.2929 20.8333 45.7308 20.8333 50C20.8333 54.2691 22.0728 55.707 24.5518 58.5825C29.5016 64.3241 37.8028 70.8333 50 70.8333C62.1971 70.8333 70.4983 64.3241 75.4483 58.5825C77.9271 55.707 79.1666 54.2691 79.1666 50C79.1666 45.7308 77.9271 44.2929 75.4483 41.4175C73.2179 38.8305 70.3075 36.0877 66.6666 33.8547" stroke="#3DA542" stroke-width="10" stroke-linecap="round"/>
<path d="M50 58.3333C54.6024 58.3333 58.3334 54.6023 58.3334 50C58.3334 45.3976 54.6024 41.6666 50 41.6666C45.3976 41.6666 41.6667 45.3976 41.6667 50C41.6667 54.6023 45.3976 58.3333 50 58.3333Z" stroke="#3DA542" stroke-width="10"/>
<path d="M41.6666 91.6667C40.2117 91.6667 38.8241 91.6667 37.5 91.6629M8.33331 62.5C8.33331 78.2133 8.33331 81.9037 13.2149 86.785C15.9364 89.5067 19.5829 90.7108 25 91.2438" stroke="#3DA542" stroke-width="10" stroke-linecap="round"/>
<path d="M58.3333 8.33337C59.7883 8.33337 61.1758 8.33337 62.5 8.33725M91.6666 37.5C91.6666 21.7865 91.6666 18.0965 86.785 13.2149C84.0633 10.4933 80.4171 9.28908 75 8.75625" stroke="#3DA542" stroke-width="10" stroke-linecap="round"/>
</svg>
