<svg width="32" height="32" viewBox="0 0 32 32" fill="none" xmlns="http://www.w3.org/2000/svg">
<g clip-path="url(#clip0_16_751)">
<path d="M16 0C7.1625 0 0 7.1625 0 16C0 24.8375 7.1625 32 16 32C24.8375 32 32 24.8375 32 16C32 7.1625 24.8375 0 16 0ZM25.9875 25.9813C24.6875 27.2812 23.1812 28.3 21.5 29.0062C19.7625 29.7437 17.9125 30.1125 16 30.1125C14.0938 30.1125 12.2437 29.7375 10.5 29.0062C8.81875 28.2937 7.30625 27.275 6.0125 25.9813C4.7125 24.6813 3.69375 23.175 2.9875 21.4937C2.25 19.7563 1.875 17.9062 1.875 16C1.875 14.0938 2.25 12.2437 2.98125 10.5C3.69375 8.81875 4.7125 7.30625 6.00625 6.0125C7.3125 4.7125 8.81875 3.69375 10.5 2.98125C12.2437 2.25 14.0938 1.875 16 1.875C17.9062 1.875 19.7563 2.25 21.5 2.98125C23.1812 3.69375 24.6937 4.7125 25.9875 6.00625C27.2875 7.30625 28.3063 8.8125 29.0125 10.4937C29.75 12.2312 30.1187 14.0812 30.1187 15.9937C30.1187 17.9 29.7438 19.75 29.0125 21.4937C28.3 23.175 27.2812 24.6875 25.9875 25.9813Z" fill="#F2F2F8"/>
<path d="M18.1125 10.5437C18.7562 10.5437 19.4437 10.7437 19.4437 10.7437L19.8562 8.29365C19.8562 8.29365 18.9812 7.99365 16.8937 7.99365C15.6125 7.99365 14.8687 8.48115 14.325 9.1999C13.8125 9.88115 13.7937 10.9749 13.7937 11.6812V13.2874H12.1375V15.6812H13.7937V23.9937H16.8937V15.6812H19.35L19.5312 13.2874H16.8937V11.4187C16.8937 10.7749 17.4687 10.5437 18.1125 10.5437Z" fill="#F2F2F8"/>
</g>
<defs>
<clipPath id="clip0_16_751">
<rect width="32" height="32" fill="white"/>
</clipPath>
</defs>
</svg>
