<svg width="19" height="22" viewBox="0 0 19 22" fill="none" xmlns="http://www.w3.org/2000/svg">
<path fill-rule="evenodd" clip-rule="evenodd" d="M3.75 6C3.75 9.17 6.33 11.75 9.5 11.75C12.67 11.75 15.25 9.17 15.25 6C15.25 2.83 12.67 0.25 9.5 0.25C6.33 0.25 3.75 2.83 3.75 6ZM5.25 6C5.25 3.66 7.16 1.75 9.5 1.75C11.84 1.75 13.75 3.66 13.75 6C13.75 8.34 11.84 10.25 9.5 10.25C7.16 10.25 5.25 8.34 5.25 6ZM17.3401 21C17.3401 21.41 17.6801 21.75 18.0901 21.75C18.5001 21.75 18.8401 21.41 18.8401 21C18.8401 16.73 14.6502 13.25 9.50015 13.25C4.35015 13.25 0.160156 16.73 0.160156 21C0.160156 21.41 0.500156 21.75 0.910156 21.75C1.32016 21.75 1.66016 21.41 1.66016 21C1.66016 17.55 5.18015 14.75 9.50015 14.75C13.8202 14.75 17.3401 17.55 17.3401 21Z" fill="#F2F2F8"/>
</svg>
