<svg width="25" height="20" viewBox="0 0 25 20" fill="none" xmlns="http://www.w3.org/2000/svg">
<path d="M22.5355 1.47296H2.46454C1.37955 1.47296 0.5 2.35252 0.5 3.4375V16.5625C0.5 17.6475 1.37955 18.5271 2.46454 18.5271H22.5355C23.6204 18.5271 24.5 17.6475 24.5 16.5625V3.4375C24.5 2.35252 23.6204 1.47296 22.5355 1.47296Z" stroke="#F2F2F8" stroke-linecap="round" stroke-linejoin="round"/>
<path d="M6.49998 10.6875C7.78865 10.6875 8.83333 9.64284 8.83333 8.35416C8.83333 7.06549 7.78865 6.02081 6.49998 6.02081C5.2113 6.02081 4.16663 7.06549 4.16663 8.35416C4.16663 9.64284 5.2113 10.6875 6.49998 10.6875Z" stroke="#F2F2F8" stroke-linecap="round" stroke-linejoin="round"/>
<path d="M3.54666 14.6458H9.95335C10.0687 14.646 10.1816 14.613 10.2788 14.5509C10.3759 14.4887 10.4532 14.4 10.5015 14.2953C10.5497 14.1905 10.5668 14.0741 10.5509 13.9599C10.5349 13.8457 10.4865 13.7385 10.4114 13.6509C9.97125 13.1031 9.41382 12.661 8.78015 12.3573C8.14648 12.0535 7.45272 11.8958 6.75001 11.8958C6.04729 11.8958 5.35354 12.0535 4.71987 12.3573C4.08619 12.661 3.52877 13.1031 3.08866 13.6509C3.01355 13.7385 2.96513 13.8457 2.94916 13.9599C2.93319 14.0741 2.95034 14.1905 2.99857 14.2953C3.0468 14.4 3.12408 14.4887 3.22123 14.5509C3.31839 14.613 3.43134 14.646 3.54666 14.6458Z" stroke="#F2F2F8" stroke-linecap="round" stroke-linejoin="round"/>
<path d="M15.5834 7.93747H20.1667" stroke="#F2F2F8" stroke-linecap="round" stroke-linejoin="round"/>
<path d="M15.5834 12.4374H20.1667" stroke="#F2F2F8" stroke-linecap="round" stroke-linejoin="round"/>
<path d="M15.5834 10.1875H21.9167" stroke="#F2F2F8" stroke-linecap="round" stroke-linejoin="round"/>
</svg>
