<svg width="25" height="26" viewBox="0 0 25 26" fill="none" xmlns="http://www.w3.org/2000/svg">
<path d="M9.5 15.1C9.5 16.264 10.4 17.2 11.504 17.2H13.76C14.72 17.2 15.5 16.384 15.5 15.364C15.5 14.272 15.02 13.876 14.312 13.624L10.7 12.364C9.992 12.112 9.51201 11.728 9.51201 10.624C9.51201 9.61599 10.292 8.78799 11.252 8.78799H13.508C14.612 8.78799 15.512 9.72399 15.512 10.888" stroke="#F2F2F8" stroke-linecap="round" stroke-linejoin="round"/>
<path d="M12.5 7.60001V18.4" stroke="#F2F2F8" stroke-linecap="round" stroke-linejoin="round"/>
<path d="M24.5 13C24.5 19.624 19.124 25 12.5 25C5.876 25 0.5 19.624 0.5 13C0.5 6.376 5.876 1 12.5 1" stroke="#F2F2F8" stroke-linecap="round" stroke-linejoin="round"/>
<path d="M18.5 2.20001V7.00001H23.3" stroke="#F2F2F8" stroke-linecap="round" stroke-linejoin="round"/>
<path d="M24.5 1L18.5 7" stroke="#F2F2F8" stroke-linecap="round" stroke-linejoin="round"/>
</svg>
