<svg width="100" height="100" viewBox="0 0 100 100" fill="none" xmlns="http://www.w3.org/2000/svg">
<g clip-path="url(#clip0_12_522)">
<path d="M58.3333 33.3333H19.4444C18.7077 33.3333 18.0012 33.0406 17.4802 32.5197C16.9593 31.9988 16.6667 31.2922 16.6667 30.5555V19.4444C16.6667 18.7077 16.9593 18.0012 17.4802 17.4802C18.0012 16.9593 18.7077 16.6666 19.4444 16.6666H58.3333C59.07 16.6666 59.7766 16.9593 60.2975 17.4802C60.8184 18.0012 61.1111 18.7077 61.1111 19.4444V30.5555C61.1111 31.2922 60.8184 31.9988 60.2975 32.5197C59.7766 33.0406 59.07 33.3333 58.3333 33.3333ZM22.2222 27.7777H55.5555V22.0555H22.2222V27.7777Z" fill="#3DA542"/>
<path d="M58.3333 39.1111H19.4444C18.7077 39.1111 18.0012 39.4037 17.4802 39.9247C16.9593 40.4456 16.6667 41.1521 16.6667 41.8889V52.7778C16.6667 53.5145 16.9593 54.221 17.4802 54.7419C18.0012 55.2629 18.7077 55.5555 19.4444 55.5555H51L61.1111 45.2777V41.8889C61.1111 41.1521 60.8184 40.4456 60.2975 39.9247C59.7766 39.4037 59.07 39.1111 58.3333 39.1111ZM55.5555 50H22.2222V44.4444H55.5555V50Z" fill="#3DA542"/>
<path d="M30.7222 87.5278V87.3611L31.6111 83.5H11.1111V11.1111H66.6666V39.5833L72.2222 34.3333V8.33332C72.2222 7.59661 71.9296 6.89007 71.4086 6.36913C70.8877 5.8482 70.1811 5.55554 69.4444 5.55554H8.33332C7.59661 5.55554 6.89007 5.8482 6.36913 6.36913C5.8482 6.89007 5.55554 7.59661 5.55554 8.33332V86.1111C5.55554 86.8478 5.8482 87.5543 6.36913 88.0753C6.89007 88.5962 7.59661 88.8889 8.33332 88.8889H30.5555C30.5784 88.4318 30.6341 87.9769 30.7222 87.5278Z" fill="#3DA542"/>
<path d="M61.1111 53.25L58.9445 55.4444C59.482 55.3336 59.9747 55.0661 60.3603 54.6755C60.7459 54.2849 61.0072 53.7889 61.1111 53.25Z" fill="#3DA542"/>
<path d="M16.6667 74.8333C16.6667 75.57 16.9593 76.2766 17.4802 76.7975C18.0012 77.3184 18.7077 77.6111 19.4444 77.6111H32.8889L33.7222 74L34.0833 72.4722V72.3333H22.2222V66.6666H39.8333L45.3889 61.1111H19.4444C18.7077 61.1111 18.0012 61.4037 17.4802 61.9247C16.9593 62.4456 16.6667 63.1521 16.6667 63.8889V74.8333Z" fill="#3DA542"/>
<path d="M93.0278 46.3056L83.6667 36.9445C83.2512 36.5279 82.7577 36.1974 82.2143 35.9718C81.6709 35.7463 81.0883 35.6302 80.5 35.6302C79.9117 35.6302 79.3291 35.7463 78.7857 35.9718C78.2423 36.1974 77.7488 36.5279 77.3333 36.9445L39.25 75.25L36.1111 88.6111C35.9936 89.1875 35.991 89.7815 36.1033 90.3589C36.2157 90.9364 36.4409 91.486 36.766 91.9762C37.0912 92.4665 37.5098 92.8878 37.998 93.216C38.4862 93.5442 39.0344 93.7729 39.6111 93.8889C39.8974 93.9177 40.1859 93.9177 40.4722 93.8889C40.8126 93.9444 41.1597 93.9444 41.5 93.8889L54.9722 90.9167L93.0278 52.7778C93.4435 52.3647 93.7734 51.8735 93.9986 51.3324C94.2237 50.7913 94.3396 50.2111 94.3396 49.625C94.3396 49.039 94.2237 48.4587 93.9986 47.9176C93.7734 47.3765 93.4435 46.8853 93.0278 46.4722V46.3056ZM52.1389 85.8611L41.9722 88.1111L44.4444 78.0278L73 49.1667L80.8333 57L52.1389 85.8611ZM83.9722 53.8611L76.1389 46.0278L80.5555 41.6667L88.4444 49.5556L83.9722 53.8611Z" fill="#3DA542"/>
</g>
<defs>
<clipPath id="clip0_12_522">
<rect width="100" height="100" fill="white"/>
</clipPath>
</defs>
</svg>
