<svg width="32" height="32" viewBox="0 0 32 32" fill="none" xmlns="http://www.w3.org/2000/svg">
<g clip-path="url(#clip0_16_745)">
<path d="M19.5149 11.9517C18.8369 11.9517 18.3349 12.1227 17.9419 12.3387C17.8789 12.1147 17.6719 11.9507 17.4279 11.9997H14.4439C14.1489 11.9507 13.9099 12.1897 14.0009 12.4997V23.4997C13.9099 23.7797 14.1489 24.0197 14.4439 23.9997H17.4279C17.7229 24.0197 17.9619 23.7797 17.9619 23.4847L17.9609 16.8367C17.9599 16.8337 17.9489 16.5157 18.1499 16.2967C18.3109 16.1227 18.5879 16.0337 18.9709 16.0337C19.6089 16.0337 19.8929 16.2947 19.9989 16.8787V23.4847C19.8939 23.7797 20.1329 24.0197 20.4279 23.9997H23.5729C23.8679 24.0197 24.1069 23.7797 24.0009 23.4847V16.6567C24.1059 13.1847 21.6329 11.9517 19.5149 11.9517ZM23.0379 22.9997H20.9619V16.8787C20.9619 15.6977 20.1989 14.9657 18.9719 14.9657C18.2779 14.9657 17.7379 15.1697 17.3659 15.5717C16.8489 16.1317 16.8889 16.8417 16.9999 16.9997V22.9997H14.9779V13.0197H16.8939V13.3557C16.8939 13.5587 17.0089 13.7457 17.1919 13.8347C17.3749 13.9237 17.5919 13.9017 17.7539 13.7787L17.8939 13.6707C18.2989 13.3517 18.7179 13.0207 19.5159 13.0207C20.3419 13.0207 23.0389 13.2837 23.0389 16.6577L23.0379 22.9997Z" fill="#F2F2F8"/>
<path d="M10.9999 6.96582C9.87794 6.96582 8.96594 7.87782 8.96594 8.99982C8.96594 10.1218 9.87794 11.0338 10.9999 11.0338C12.1219 11.0338 13.0339 10.1218 13.0339 8.99982C13.0339 7.87782 12.1219 6.96582 10.9999 6.96582ZM10.9999 9.96582C10.4679 9.96582 10.0339 9.53182 10.0339 8.99982C10.0339 8.46782 10.4679 8.03382 10.9999 8.03382C11.5319 8.03382 11.9659 8.46782 11.9659 8.99982C11.9659 9.53182 11.5319 9.96582 10.9999 9.96582Z" fill="#F2F2F8"/>
<path d="M12.4279 11.9507H9.45991C9.16491 11.9507 8.92591 12.1897 8.99991 12.4997V23.4997C8.92591 23.7797 9.16491 24.0197 9.45991 23.9997H12.4279C12.7229 24.0197 12.9619 23.7797 12.9619 23.4847V12.4847C12.9619 12.1897 12.7229 11.9507 12.4279 11.9507ZM11.9999 22.9997H9.99391V13.0197H11.9999V22.9997Z" fill="#F2F2F8"/>
<path d="M15.9999 -0.0341797C7.15794 -0.0341797 -0.0340576 7.15782 -0.0340576 15.9998C-0.0340576 24.8418 7.15794 32.0338 15.9999 32.0338C24.8419 32.0338 32.0339 24.8418 32.0339 15.9998C32.0339 7.15782 24.8419 -0.0341797 15.9999 -0.0341797ZM15.9999 30.9658C7.74794 30.9658 1.03394 24.2518 1.03394 15.9998C1.03394 7.74782 7.74794 1.03382 15.9999 1.03382C24.2519 1.03382 30.9659 7.74782 30.9659 15.9998C30.9659 24.2518 24.2519 30.9658 15.9999 30.9658Z" fill="#F2F2F8"/>
</g>
<defs>
<clipPath id="clip0_16_745">
<rect width="32" height="32" fill="white"/>
</clipPath>
</defs>
</svg>
