<svg width="33" height="33" viewBox="0 0 33 33" fill="none" xmlns="http://www.w3.org/2000/svg">
<path fill-rule="evenodd" clip-rule="evenodd" d="M25.8333 30.8485H15.1667C14.4303 30.8485 13.8333 30.2515 13.8333 29.5151C13.8333 28.7787 14.4303 28.1818 15.1667 28.1818H25.8333C26.5697 28.1818 27.1667 27.5849 27.1667 26.8485V5.51514C27.1667 4.77876 26.5697 4.1818 25.8333 4.1818H15.1667C14.4303 4.1818 13.8333 3.58486 13.8333 2.84847C13.8333 2.1121 14.4303 1.51514 15.1667 1.51514H25.8333C28.0425 1.51514 29.8333 3.306 29.8333 5.51514V26.8485C29.8333 29.0577 28.0425 30.8485 25.8333 30.8485Z" fill="#F2F2F8"/>
<path fill-rule="evenodd" clip-rule="evenodd" d="M3.81814 17.9282C2.94949 16.9258 2.94949 15.4375 3.81816 14.4353L9.38709 8.00952C11.0038 6.14406 14.0689 7.28745 14.0689 9.756V12.1817H22.0689C23.5417 12.1817 24.7356 13.3756 24.7356 14.8483V17.515C24.7356 18.9878 23.5417 20.1817 22.0689 20.1817H14.0689V22.6074C14.0689 25.0759 11.0038 26.2193 9.38709 24.3538L3.81814 17.9282ZM6.59013 15.3085C6.1558 15.8095 6.1558 16.5538 6.59013 17.0549L11.4023 22.6074V19.515C11.4023 18.4105 12.2977 17.515 13.4023 17.515H22.0689V14.8483H13.4023C12.2977 14.8483 11.4023 13.9529 11.4023 12.8484V9.756L6.59013 15.3085Z" fill="#F2F2F8"/>
</svg>
