<svg width="130" height="60" viewBox="0 0 130 60" fill="none" xmlns="http://www.w3.org/2000/svg">
<g clip-path="url(#clip0_12_493)">
<path d="M82.602 53.5469C83.1908 53.3374 83.6996 52.9521 84.0585 52.4441C84.4175 51.9361 84.6089 51.3302 84.6064 50.71V49.7293C84.6062 48.9259 84.2842 48.1554 83.7113 47.5873C83.1384 47.0192 82.3615 46.7 81.5513 46.6997H72.1477C71.8926 46.7004 71.6482 46.8012 71.4679 46.9801C71.2875 47.1589 71.1859 47.4012 71.1852 47.6541V56.9792C71.1859 57.2321 71.2875 57.4745 71.4679 57.6533C71.6482 57.8321 71.8926 57.9329 72.1477 57.9336H72.5185C72.7735 57.9329 73.0179 57.8321 73.1983 57.6533C73.3786 57.4745 73.4802 57.2321 73.4809 56.9792V54.1773C73.4807 54.1255 73.4908 54.0742 73.5107 54.0263C73.5306 53.9783 73.5599 53.9348 73.5968 53.8982C73.6337 53.8615 73.6776 53.8325 73.7259 53.8128C73.7743 53.7931 73.826 53.7831 73.8783 53.7833H79.6441C79.7496 53.7835 79.8532 53.8111 79.9446 53.8633C80.036 53.9155 80.112 53.9906 80.165 54.081L82.1694 57.5483C82.2537 57.6931 82.3745 57.8137 82.5201 57.8981C82.6656 57.9826 82.8308 58.028 82.9994 58.0299C83.1813 58.0322 83.3596 57.9804 83.5115 57.8811L83.5645 57.8285C83.7826 57.6969 83.9408 57.4866 84.006 57.2419C84.0653 56.9912 84.0242 56.7275 83.8912 56.5064L82.4255 54.0109C82.4037 53.9711 82.3902 53.9273 82.3856 53.8822C82.3811 53.8372 82.3856 53.7916 82.399 53.7483C82.4167 53.7025 82.4439 53.6609 82.4789 53.6262C82.5139 53.5915 82.5559 53.5645 82.602 53.5469ZM82.2753 50.8938C82.2753 51.5418 81.7456 51.8395 81.2246 51.8395H73.8694C73.7758 51.8395 73.6859 51.8026 73.6197 51.7369C73.5535 51.6712 73.5163 51.5821 73.5163 51.4892V49.0463C73.5163 48.9534 73.5535 48.8644 73.6197 48.7987C73.6859 48.733 73.7758 48.6961 73.8694 48.6961H81.1805C81.4708 48.6961 81.7493 48.8105 81.9547 49.0141C82.16 49.2177 82.2753 49.4939 82.2753 49.7818V50.8938Z" fill="#262D33"/>
<path d="M112.729 46.6997H102.628C102.428 46.7042 102.237 46.785 102.096 46.9252C101.954 47.0655 101.873 47.2544 101.868 47.4528V57.1894C101.873 57.3877 101.954 57.5766 102.096 57.7169C102.237 57.8571 102.428 57.9379 102.628 57.9424H112.729C113.539 57.9421 114.316 57.6229 114.889 57.0548C115.462 56.4867 115.784 55.7162 115.784 54.9128V49.7381C115.784 48.9338 115.463 48.1623 114.89 47.5927C114.317 47.0232 113.54 46.7021 112.729 46.6997ZM113.497 49.7293V54.9041C113.497 55.192 113.382 55.4682 113.177 55.6718C112.971 55.8754 112.693 55.9898 112.402 55.9898H104.473C104.392 55.9889 104.314 55.9563 104.256 55.899C104.198 55.8417 104.165 55.7643 104.164 55.6833V48.9588C104.165 48.8778 104.198 48.8004 104.256 48.7431C104.314 48.6858 104.392 48.6532 104.473 48.6523H112.402C112.691 48.6519 112.969 48.7649 113.174 48.9667C113.379 49.1685 113.495 49.4427 113.497 49.7293Z" fill="#262D33"/>
<path d="M100.623 56.5764L100.306 56.0773H100.323L94.3544 47.2951C94.01 46.7873 93.5421 46.5071 93.0476 46.5071H93.0123C92.509 46.5071 92.041 46.7873 91.6967 47.2951L85.8779 55.8584L85.7366 56.0773H85.7454L85.4275 56.5764C85.3564 56.6754 85.3083 56.7888 85.2869 56.9084C85.2655 57.0281 85.2714 57.151 85.3039 57.2682C85.3366 57.3861 85.3945 57.4956 85.4738 57.5893C85.553 57.683 85.6517 57.7586 85.7631 57.811L85.9927 57.9248C86.2288 58.0316 86.4949 58.0542 86.7459 57.9888C86.9969 57.9234 87.2174 57.774 87.3701 57.5659L89.1802 54.8603H96.8885L98.6986 57.5659C98.8022 57.7113 98.94 57.8295 99.0999 57.9104C99.2599 57.9912 99.4374 58.0323 99.6169 58.0299C99.7761 58.0305 99.9332 57.9946 100.076 57.9248L100.306 57.811C100.417 57.7586 100.516 57.683 100.595 57.5893C100.674 57.4956 100.732 57.3861 100.765 57.2682C100.79 57.1494 100.79 57.0268 100.766 56.9079C100.742 56.7889 100.693 56.6761 100.623 56.5764ZM95.2462 52.7676C95.2167 52.8234 95.1722 52.8701 95.1177 52.9026C95.0632 52.935 95.0007 52.9519 94.9372 52.9515H91.1051C91.0415 52.9519 90.979 52.935 90.9245 52.9026C90.87 52.8701 90.8255 52.8234 90.796 52.7676C90.7662 52.7133 90.752 52.6518 90.7552 52.59C90.7583 52.5282 90.7785 52.4685 90.8137 52.4174L92.8092 49.4754L92.871 49.3791C92.884 49.3586 92.9024 49.3421 92.9242 49.3313C92.946 49.3205 92.9703 49.3158 92.9946 49.3178H93.0211C93.0466 49.3158 93.0723 49.3204 93.0955 49.3311C93.1187 49.3419 93.1387 49.3584 93.1536 49.3791L95.2109 52.4086C95.2524 52.458 95.278 52.5187 95.2843 52.5827C95.2906 52.6467 95.2773 52.7112 95.2462 52.7676Z" fill="#262D33"/>
<path d="M120.711 48.6698H129.241C129.34 48.6698 129.439 48.6504 129.531 48.6125C129.623 48.5747 129.707 48.5192 129.778 48.4493C129.848 48.3794 129.904 48.2963 129.942 48.205C129.98 48.1136 130 48.0157 130 47.9168V47.4965C130 47.2968 129.92 47.1053 129.778 46.9641C129.635 46.8229 129.442 46.7435 129.241 46.7435H120.384C119.572 46.7454 118.794 47.0661 118.22 47.6355C117.646 48.2049 117.322 48.9766 117.32 49.7818V54.9041C117.322 55.7093 117.646 56.481 118.22 57.0504C118.794 57.6198 119.572 57.9405 120.384 57.9424H129.241C129.339 57.9425 129.437 57.9233 129.528 57.8859C129.619 57.8486 129.702 57.7938 129.772 57.7246C129.841 57.6555 129.897 57.5734 129.934 57.4831C129.972 57.3927 129.991 57.2959 129.991 57.1981V56.7778C129.991 56.5781 129.911 56.3866 129.769 56.2454C129.626 56.1041 129.433 56.0248 129.232 56.0248H120.711C120.414 56.0243 120.129 55.907 119.919 55.6986C119.709 55.4902 119.59 55.2076 119.59 54.9128V53.1879C119.59 53.0996 119.625 53.015 119.688 52.9526C119.751 52.8902 119.836 52.8552 119.925 52.8552H127.969C128.171 52.8552 128.364 52.7758 128.506 52.6346C128.648 52.4934 128.729 52.3019 128.729 52.1022V51.6819C128.729 51.4822 128.648 51.2906 128.506 51.1494C128.364 51.0082 128.171 50.9289 127.969 50.9289H119.925C119.836 50.9289 119.751 50.8938 119.688 50.8314C119.625 50.769 119.59 50.6844 119.59 50.5961V49.7556C119.599 49.4659 119.72 49.1909 119.93 48.9884C120.139 48.7859 120.419 48.6717 120.711 48.6698Z" fill="#262D33"/>
<path d="M68.8895 46.7523H58.0113C57.4638 46.7523 57.1548 47.05 57.1548 47.5929V47.8118C57.1548 48.3721 57.4462 48.6611 58.0113 48.6611H61.7374C61.8824 48.6618 62.0212 48.7192 62.1237 48.8208C62.2263 48.9225 62.2842 49.0602 62.2849 49.2039V57.0843C62.2849 57.6271 62.5851 57.9248 63.1325 57.9248H63.7329C64.2804 57.9248 64.5806 57.6271 64.5806 57.0843V49.2039C64.5813 49.0602 64.6392 48.9225 64.7417 48.8208C64.8442 48.7192 64.983 48.6618 65.128 48.6611H68.8895C69.4369 48.6611 69.7371 48.3546 69.7371 47.8118V47.5929C69.7371 47.05 69.4369 46.7523 68.8895 46.7523Z" fill="#262D33"/>
<path d="M28.5112 46.7435H28.1845C28.0545 46.7433 27.9258 46.7685 27.8058 46.8177C27.6857 46.8669 27.5766 46.9391 27.4847 47.0302C27.3928 47.1214 27.32 47.2296 27.2704 47.3486C27.2207 47.4677 27.1953 47.5953 27.1956 47.7242V54.5363C27.1942 54.933 27.0346 55.313 26.7518 55.5935C26.4689 55.874 26.0857 56.0322 25.6857 56.0336H19.4166C19.0165 56.0322 18.6333 55.874 18.3505 55.5935C18.0676 55.313 17.9081 54.933 17.9067 54.5363V54.4312C17.9067 54.3174 17.9155 53.5381 17.9155 47.7154C17.9155 47.46 17.8132 47.215 17.631 47.0344C17.4489 46.8538 17.2018 46.7523 16.9442 46.7523H16.6087C16.4788 46.7521 16.3501 46.7773 16.23 46.8265C16.1099 46.8757 16.0008 46.9479 15.9089 47.039C15.817 47.1301 15.7442 47.2383 15.6946 47.3574C15.645 47.4765 15.6196 47.6041 15.6198 47.7329V54.9216C15.6216 55.7268 15.9451 56.4985 16.5192 57.0679C17.0934 57.6373 17.8717 57.958 18.6837 57.9599H26.4274C27.2348 57.9583 28.0087 57.6395 28.5796 57.0733C29.1505 56.5072 29.472 55.7397 29.4736 54.9391C29.4736 54.9391 29.4824 54.3612 29.4824 54.3174V47.7329C29.486 47.6043 29.4635 47.4762 29.4163 47.3563C29.369 47.2364 29.2981 47.1271 29.2075 47.0349C29.117 46.9426 29.0087 46.8693 28.8891 46.8193C28.7695 46.7692 28.641 46.7435 28.5112 46.7435Z" fill="#3DA542"/>
<path d="M34.6125 48.6698H43.142C43.2417 48.6698 43.3405 48.6504 43.4326 48.6125C43.5247 48.5747 43.6084 48.5192 43.679 48.4493C43.7495 48.3794 43.8054 48.2963 43.8436 48.205C43.8817 48.1136 43.9014 48.0157 43.9014 47.9168V47.4965C43.9014 47.2968 43.8214 47.1053 43.679 46.9641C43.5366 46.8229 43.3434 46.7435 43.142 46.7435H34.2858C33.4738 46.7454 32.6955 47.0661 32.1214 47.6355C31.5472 48.2049 31.2238 48.9766 31.2219 49.7818V54.9041C31.2238 55.7093 31.5472 56.481 32.1214 57.0504C32.6955 57.6198 33.4738 57.9405 34.2858 57.9424H43.142C43.2406 57.9425 43.3383 57.9233 43.4294 57.8859C43.5205 57.8486 43.6033 57.7938 43.673 57.7246C43.7427 57.6555 43.798 57.5734 43.8356 57.4831C43.8733 57.3927 43.8927 57.2959 43.8925 57.1981V56.7778C43.8925 56.5781 43.8125 56.3866 43.6701 56.2454C43.5277 56.1041 43.3346 56.0248 43.1332 56.0248H34.6125C34.3152 56.0243 34.0303 55.907 33.8201 55.6986C33.6099 55.4902 33.4916 55.2076 33.4911 54.9128V53.1879C33.4911 53.0996 33.5265 53.015 33.5894 52.9526C33.6523 52.8902 33.7377 52.8552 33.8267 52.8552H41.8705C42.0719 52.8552 42.2651 52.7758 42.4075 52.6346C42.5499 52.4934 42.6299 52.3019 42.6299 52.1022V51.6819C42.6299 51.4822 42.5499 51.2906 42.4075 51.1494C42.2651 51.0082 42.0719 50.9289 41.8705 50.9289H33.8267C33.7377 50.9289 33.6523 50.8938 33.5894 50.8314C33.5265 50.769 33.4911 50.6844 33.4911 50.5961V49.7556C33.5 49.4659 33.6219 49.1909 33.831 48.9884C34.0401 48.7859 34.3202 48.6717 34.6125 48.6698Z" fill="#3DA542"/>
<path d="M54.8856 50.9376H48.5723C48.275 50.9372 47.9901 50.8198 47.7799 50.6114C47.5697 50.403 47.4514 50.1204 47.4509 49.8256V49.7731C47.4514 49.4783 47.5697 49.1957 47.7799 48.9873C47.9901 48.7788 48.275 48.6615 48.5723 48.6611H54.9297C55.1311 48.6611 55.3242 48.5817 55.4666 48.4405C55.6091 48.2993 55.6891 48.1078 55.6891 47.9081V47.4878C55.6891 47.2881 55.6091 47.0965 55.4666 46.9553C55.3242 46.8141 55.1311 46.7348 54.9297 46.7348H48.2279C47.4159 46.7366 46.6377 47.0573 46.0635 47.6267C45.4893 48.1961 45.1659 48.9678 45.164 49.7731V49.8169C45.1659 50.6221 45.4893 51.3938 46.0635 51.9632C46.6377 52.5326 47.4159 52.8533 48.2279 52.8552H48.3516V52.8639L48.5017 52.8552H54.55C54.8422 52.8568 55.122 52.9726 55.3287 53.1775C55.5353 53.3824 55.6521 53.6599 55.6537 53.9497V54.9216C55.6533 55.2163 55.535 55.4989 55.3248 55.7074C55.1146 55.9158 54.8296 56.0331 54.5324 56.0336H53.4198C53.3906 56.0292 53.3608 56.0292 53.3315 56.0336H45.9234C45.722 56.0336 45.5288 56.1129 45.3864 56.2541C45.244 56.3953 45.164 56.5869 45.164 56.7866V57.1981C45.164 57.3978 45.244 57.5893 45.3864 57.7306C45.5288 57.8718 45.722 57.9511 45.9234 57.9511H48.3516V57.9599H54.8679C55.6799 57.958 56.4582 57.6373 57.0324 57.0679C57.6065 56.4985 57.9299 55.7268 57.9318 54.9216V53.9584C57.9302 53.1577 57.6087 52.3903 57.0378 51.8242C56.4668 51.258 55.693 50.9392 54.8856 50.9376Z" fill="#3DA542"/>
<path d="M13.898 54.9128V49.7818C13.8961 48.9766 13.5727 48.2049 12.9985 47.6355C12.4243 47.0661 11.6461 46.7454 10.8341 46.7435H3.06391C2.25189 46.7454 1.47365 47.0661 0.899461 47.6355C0.325269 48.2049 0.00186566 48.9766 0 49.7818V54.9041C0.00186566 55.7093 0.325269 56.481 0.899461 57.0504C1.47365 57.6198 2.25189 57.9405 3.06391 57.9424H10.3749C10.4341 57.9417 10.4923 57.9567 10.5436 57.986C10.5948 58.0153 10.6372 58.0577 10.6663 58.1087C10.9224 58.564 11.4786 59.5184 11.4786 59.5184C11.5644 59.6658 11.6881 59.788 11.837 59.8726C11.9859 59.9572 12.1547 60.0011 12.3263 60C12.4971 60 12.6648 59.9546 12.8119 59.8687L13.1121 59.6935C13.3333 59.5646 13.4944 59.3545 13.5605 59.1087C13.6266 58.8629 13.5924 58.6012 13.4653 58.3802L12.8737 57.3645C12.8532 57.328 12.8456 57.2859 12.852 57.2446C12.8584 57.2034 12.8784 57.1654 12.9091 57.1368C13.2198 56.8539 13.468 56.5102 13.6382 56.1274C13.8084 55.7447 13.8969 55.3311 13.898 54.9128ZM11.6111 50.062V54.6239C11.6102 54.9928 11.4619 55.3464 11.1989 55.6073C10.9358 55.8682 10.5792 56.0151 10.2072 56.0161H3.69083C3.50639 56.0163 3.32373 55.9804 3.15329 55.9105C2.98285 55.8407 2.82799 55.7381 2.69758 55.6088C2.56717 55.4795 2.46376 55.3259 2.39329 55.1569C2.32282 54.9879 2.28667 54.8068 2.2869 54.6239V50.062C2.28667 49.8791 2.32282 49.698 2.39329 49.529C2.46376 49.36 2.56717 49.2064 2.69758 49.0771C2.82799 48.9478 2.98285 48.8452 3.15329 48.7753C3.32373 48.7055 3.50639 48.6696 3.69083 48.6698H10.2072C10.3918 48.6688 10.5749 48.7041 10.7457 48.7737C10.9165 48.8433 11.0717 48.9458 11.2022 49.0753C11.3328 49.2047 11.4362 49.3586 11.5064 49.528C11.5765 49.6974 11.6121 49.8789 11.6111 50.062Z" fill="#3DA542"/>
<path d="M57.5963 20.1518C61.0487 13.8475 65.596 9.07552 69.7283 6.86027L65.5783 0.380883C65.2516 -0.126961 64.7307 -0.126961 64.4216 0.380883L41.7116 35.8774C41.3849 36.3853 41.6586 36.5341 42.2502 36.5341H53.0843C52.9165 31.946 54.3028 26.1321 57.5963 20.1518Z" fill="#3DA542"/>
<path d="M71.1411 10.8968C68.916 9.68844 64.1126 14.1627 60.413 20.896C56.7133 27.6293 55.5301 34.0562 57.7552 35.2733C59.3711 36.1401 62.0906 33.8548 64.9956 30.0985V21.5002C64.9956 20.6071 65.5607 20.1167 65.9845 20.896L68.4039 25.4316C68.4392 25.3791 68.4568 25.3353 68.4922 25.2827C72.1918 18.5494 73.375 12.1138 71.1411 10.8968Z" fill="#3DA542"/>
<path d="M88.306 35.8774L79.1408 21.544C78.27 24.4533 77.089 27.2623 75.6177 29.9234C74.8286 31.3533 73.9651 32.7415 73.0306 34.0824L74.7612 36.5341H87.7674C88.359 36.5341 88.6327 36.3853 88.306 35.8774Z" fill="#3DA542"/>
</g>
<defs>
<clipPath id="clip0_12_493">
<rect width="130" height="60" fill="white"/>
</clipPath>
</defs>
</svg>
