<svg width="331" height="154" viewBox="0 0 331 154" fill="none" xmlns="http://www.w3.org/2000/svg">
<g clip-path="url(#clip0_3_163)">
<path d="M210.318 137.437C211.817 136.899 213.112 135.91 214.026 134.606C214.94 133.303 215.427 131.748 215.421 130.156V127.639C215.42 125.576 214.601 123.599 213.142 122.141C211.683 120.683 209.705 119.863 207.642 119.863H183.699C183.05 119.864 182.427 120.123 181.968 120.582C181.509 121.041 181.25 121.663 181.249 122.312V146.247C181.25 146.896 181.509 147.518 181.968 147.977C182.427 148.436 183.05 148.694 183.699 148.696H184.643C185.293 148.694 185.915 148.436 186.374 147.977C186.833 147.518 187.092 146.896 187.094 146.247V139.055C187.093 138.922 187.119 138.79 187.17 138.667C187.22 138.544 187.295 138.433 187.389 138.339C187.483 138.245 187.595 138.17 187.718 138.12C187.841 138.069 187.972 138.043 188.105 138.044H202.786C203.055 138.044 203.318 138.115 203.551 138.249C203.784 138.383 203.977 138.576 204.113 138.808L209.216 147.707C209.431 148.079 209.738 148.388 210.109 148.605C210.479 148.822 210.9 148.938 211.329 148.943C211.792 148.949 212.246 148.816 212.633 148.561L212.768 148.427C213.323 148.089 213.726 147.549 213.892 146.921C214.043 146.277 213.938 145.601 213.6 145.033L209.868 138.628C209.813 138.526 209.778 138.413 209.767 138.298C209.755 138.182 209.766 138.065 209.8 137.954C209.846 137.836 209.915 137.73 210.004 137.641C210.093 137.551 210.2 137.482 210.318 137.437ZM209.486 130.627C209.486 132.291 208.137 133.055 206.81 133.055H188.083C187.844 133.055 187.616 132.96 187.447 132.791C187.278 132.623 187.184 132.394 187.184 132.156V125.886C187.184 125.647 187.278 125.419 187.447 125.25C187.616 125.081 187.844 124.987 188.083 124.987H206.698C207.437 124.987 208.146 125.28 208.669 125.803C209.192 126.325 209.486 127.034 209.486 127.773V130.627Z" fill="#F2F2F8"/>
<path d="M287.026 119.863H261.306C260.797 119.874 260.312 120.081 259.952 120.441C259.592 120.801 259.384 121.286 259.373 121.795V146.786C259.384 147.295 259.592 147.78 259.952 148.14C260.312 148.5 260.797 148.707 261.306 148.719H287.026C289.088 148.718 291.067 147.899 292.525 146.441C293.984 144.982 294.804 143.005 294.804 140.943V127.661C294.804 125.597 293.985 123.616 292.527 122.155C291.069 120.693 289.091 119.869 287.026 119.863ZM288.981 127.639V140.92C288.981 141.659 288.688 142.368 288.165 142.891C287.642 143.414 286.933 143.707 286.194 143.707H266.005C265.797 143.705 265.598 143.621 265.451 143.474C265.304 143.327 265.22 143.128 265.218 142.921V125.661C265.22 125.453 265.304 125.254 265.451 125.107C265.598 124.96 265.797 124.877 266.005 124.874H286.194C286.93 124.873 287.636 125.163 288.158 125.681C288.681 126.199 288.977 126.903 288.981 127.639Z" fill="#F2F2F8"/>
<path d="M256.203 145.213L255.394 143.932H255.439L240.241 121.391C239.364 120.087 238.172 119.368 236.914 119.368H236.824C235.542 119.368 234.351 120.087 233.474 121.391L218.658 143.37L218.299 143.932H218.321L217.512 145.213C217.33 145.467 217.208 145.758 217.154 146.065C217.099 146.372 217.114 146.688 217.197 146.988C217.28 147.291 217.428 147.572 217.629 147.812C217.831 148.053 218.082 148.247 218.366 148.382L218.951 148.674C219.552 148.948 220.229 149.006 220.868 148.838C221.507 148.67 222.069 148.287 222.458 147.752L227.066 140.808H246.693L251.302 147.752C251.566 148.126 251.916 148.429 252.324 148.637C252.731 148.844 253.183 148.95 253.64 148.943C254.045 148.945 254.445 148.853 254.809 148.674L255.394 148.382C255.677 148.247 255.928 148.053 256.13 147.812C256.332 147.572 256.479 147.291 256.563 146.988C256.627 146.683 256.628 146.369 256.566 146.064C256.504 145.758 256.381 145.469 256.203 145.213ZM242.511 135.437C242.436 135.58 242.323 135.7 242.184 135.783C242.046 135.867 241.886 135.91 241.725 135.909H231.968C231.806 135.91 231.647 135.867 231.508 135.783C231.369 135.7 231.256 135.58 231.181 135.437C231.105 135.297 231.069 135.14 231.077 134.981C231.085 134.822 231.136 134.669 231.226 134.538L236.307 126.987L236.464 126.74C236.497 126.687 236.544 126.645 236.599 126.617C236.655 126.589 236.717 126.577 236.779 126.582H236.846C236.911 126.577 236.976 126.589 237.035 126.617C237.095 126.644 237.145 126.687 237.183 126.74L242.422 134.515C242.527 134.642 242.592 134.798 242.609 134.962C242.625 135.127 242.591 135.292 242.511 135.437Z" fill="#F2F2F8"/>
<path d="M307.349 124.919H329.067C329.32 124.919 329.572 124.869 329.806 124.772C330.041 124.675 330.254 124.533 330.434 124.353C330.613 124.174 330.756 123.961 330.853 123.726C330.95 123.492 331 123.24 331 122.987V121.908C331 121.395 330.796 120.904 330.434 120.541C330.071 120.179 329.579 119.975 329.067 119.975H306.517C304.45 119.98 302.468 120.803 301.006 122.264C299.544 123.726 298.721 125.707 298.716 127.773V140.92C298.721 142.987 299.544 144.968 301.006 146.429C302.468 147.891 304.45 148.714 306.517 148.719H329.067C329.318 148.719 329.566 148.67 329.798 148.574C330.03 148.478 330.241 148.337 330.418 148.16C330.596 147.982 330.737 147.772 330.833 147.54C330.929 147.308 330.978 147.059 330.977 146.809V145.73C330.977 145.217 330.774 144.726 330.411 144.363C330.049 144.001 329.557 143.797 329.044 143.797H307.349C306.592 143.796 305.867 143.495 305.331 142.96C304.796 142.425 304.495 141.7 304.494 140.943V136.516C304.494 136.289 304.584 136.072 304.744 135.912C304.904 135.752 305.122 135.662 305.348 135.662H325.829C326.342 135.662 326.834 135.458 327.196 135.096C327.559 134.733 327.763 134.242 327.763 133.729V132.65C327.763 132.138 327.559 131.646 327.196 131.284C326.834 130.921 326.342 130.717 325.829 130.717H305.348C305.122 130.717 304.904 130.627 304.744 130.467C304.584 130.307 304.494 130.09 304.494 129.863V127.706C304.517 126.962 304.827 126.257 305.359 125.737C305.892 125.217 306.605 124.924 307.349 124.919Z" fill="#F2F2F8"/>
<path d="M175.403 119.998H147.706C146.312 119.998 145.525 120.762 145.525 122.155V122.717C145.525 124.155 146.267 124.897 147.706 124.897H157.193C157.562 124.899 157.916 125.046 158.177 125.307C158.438 125.568 158.585 125.921 158.587 126.29V146.516C158.587 147.91 159.351 148.674 160.745 148.674H162.274C163.668 148.674 164.432 147.91 164.432 146.516V126.29C164.434 125.921 164.581 125.568 164.842 125.307C165.103 125.046 165.457 124.899 165.826 124.897H175.403C176.797 124.897 177.562 124.11 177.562 122.717V122.155C177.562 120.762 176.797 119.998 175.403 119.998Z" fill="#F2F2F8"/>
<path d="M72.5938 119.975H71.762C71.4312 119.975 71.1035 120.039 70.7977 120.165C70.492 120.292 70.2141 120.477 69.9802 120.711C69.7463 120.945 69.5608 121.223 69.4345 121.528C69.3082 121.834 69.2435 122.161 69.244 122.492V139.977C69.2405 140.995 68.8343 141.97 68.1141 142.69C67.3939 143.41 66.4181 143.816 65.3996 143.82H49.4375C48.419 143.816 47.4433 143.41 46.7231 142.69C46.0029 141.97 45.5967 140.995 45.5932 139.977V139.707C45.5932 139.415 45.6156 137.415 45.6156 122.47C45.6156 121.814 45.3551 121.185 44.8913 120.722C44.4275 120.258 43.7985 119.998 43.1426 119.998H42.2883C41.9575 119.997 41.6298 120.062 41.324 120.188C41.0183 120.314 40.7405 120.5 40.5065 120.733C40.2726 120.967 40.0872 121.245 39.9608 121.551C39.8345 121.856 39.7698 122.184 39.7704 122.515V140.965C39.7751 143.032 40.5985 145.013 42.0605 146.474C43.5225 147.936 45.504 148.759 47.5716 148.764H67.2881C69.3439 148.76 71.3143 147.941 72.768 146.488C74.2217 145.035 75.0402 143.065 75.0444 141.01C75.0444 141.01 75.0668 139.527 75.0668 139.415V122.515C75.0758 122.184 75.0185 121.856 74.8983 121.548C74.7781 121.24 74.5973 120.96 74.3668 120.723C74.1363 120.486 73.8606 120.298 73.556 120.17C73.2515 120.041 72.9243 119.975 72.5938 119.975Z" fill="#3DA542"/>
<path d="M88.1288 124.919H109.846C110.1 124.919 110.352 124.869 110.586 124.772C110.821 124.675 111.034 124.533 111.213 124.353C111.393 124.174 111.535 123.961 111.632 123.726C111.73 123.492 111.78 123.24 111.78 122.987V121.908C111.78 121.395 111.576 120.904 111.213 120.541C110.851 120.179 110.359 119.975 109.846 119.975H87.297C85.2294 119.98 83.2479 120.803 81.7859 122.264C80.3239 123.726 79.5005 125.707 79.4958 127.773V140.92C79.5005 142.987 80.3239 144.968 81.7859 146.429C83.2479 147.891 85.2294 148.714 87.297 148.719H109.846C110.097 148.719 110.346 148.67 110.578 148.574C110.81 148.478 111.021 148.337 111.198 148.16C111.376 147.982 111.516 147.772 111.612 147.54C111.708 147.308 111.757 147.059 111.757 146.809V145.73C111.757 145.217 111.553 144.726 111.191 144.363C110.828 144.001 110.337 143.797 109.824 143.797H88.1288C87.3719 143.796 86.6464 143.495 86.1112 142.96C85.576 142.425 85.2748 141.7 85.2736 140.943V136.516C85.2736 136.289 85.3636 136.072 85.5238 135.912C85.684 135.752 85.9013 135.662 86.1279 135.662H106.609C107.122 135.662 107.613 135.458 107.976 135.096C108.339 134.733 108.542 134.242 108.542 133.729V132.65C108.542 132.138 108.339 131.646 107.976 131.284C107.613 130.921 107.122 130.717 106.609 130.717H86.1279C85.9013 130.717 85.684 130.627 85.5238 130.467C85.3636 130.307 85.2736 130.09 85.2736 129.863V127.706C85.2963 126.962 85.6064 126.257 86.1389 125.737C86.6713 125.217 87.3846 124.924 88.1288 124.919Z" fill="#3DA542"/>
<path d="M139.747 130.74H123.673C122.916 130.739 122.19 130.438 121.655 129.903C121.12 129.368 120.819 128.642 120.817 127.886V127.751C120.819 126.994 121.12 126.269 121.655 125.734C122.19 125.199 122.916 124.898 123.673 124.897H139.859C140.372 124.897 140.864 124.693 141.227 124.331C141.589 123.968 141.793 123.477 141.793 122.964V121.885C141.793 121.373 141.589 120.881 141.227 120.519C140.864 120.156 140.372 119.953 139.859 119.953H122.796C120.728 119.957 118.747 120.781 117.285 122.242C115.823 123.703 114.999 125.684 114.995 127.751V127.863C114.999 129.93 115.823 131.911 117.285 133.372C118.747 134.834 120.728 135.657 122.796 135.662H123.111V135.684L123.493 135.662H138.893C139.637 135.666 140.349 135.963 140.875 136.489C141.401 137.015 141.699 137.727 141.703 138.471V140.965C141.702 141.722 141.401 142.447 140.865 142.982C140.33 143.517 139.605 143.818 138.848 143.82H136.015C135.941 143.808 135.865 143.808 135.79 143.82H116.928C116.415 143.82 115.923 144.023 115.561 144.386C115.198 144.748 114.995 145.24 114.995 145.752V146.809C114.995 147.321 115.198 147.813 115.561 148.175C115.923 148.538 116.415 148.741 116.928 148.741H123.111V148.764H139.702C141.77 148.759 143.751 147.936 145.213 146.474C146.675 145.013 147.499 143.032 147.503 140.965V138.493C147.499 136.438 146.681 134.469 145.227 133.015C143.773 131.562 141.803 130.744 139.747 130.74Z" fill="#3DA542"/>
<path d="M35.3864 140.943V127.773C35.3816 125.707 34.5582 123.726 33.0962 122.264C31.6343 120.803 29.6528 119.98 27.5852 119.975H7.8012C5.73365 119.98 3.75214 120.803 2.29016 122.264C0.828185 123.726 0.00475027 125.707 0 127.773V140.92C0.00475027 142.987 0.828185 144.968 2.29016 146.429C3.75214 147.891 5.73365 148.714 7.8012 148.719H26.4161C26.5667 148.717 26.715 148.756 26.8455 148.831C26.976 148.906 27.084 149.015 27.1581 149.146C27.81 150.314 29.2264 152.764 29.2264 152.764C29.4448 153.142 29.7596 153.456 30.1387 153.673C30.5178 153.89 30.9477 154.003 31.3846 154C31.8195 154 32.2464 153.884 32.6211 153.663L33.3855 153.213C33.9487 152.883 34.3588 152.343 34.5271 151.712C34.6954 151.081 34.6084 150.41 34.2848 149.842L32.7785 147.236C32.7263 147.142 32.7068 147.034 32.7231 146.928C32.7393 146.822 32.7905 146.725 32.8684 146.651C33.6595 145.925 34.2917 145.043 34.725 144.06C35.1584 143.078 35.3835 142.017 35.3864 140.943ZM29.5636 128.493V140.201C29.5612 141.148 29.1839 142.056 28.514 142.725C27.8441 143.395 26.9363 143.772 25.989 143.775H9.39741C8.92782 143.775 8.46272 143.683 8.02876 143.504C7.5948 143.324 7.2005 143.061 6.86845 142.729C6.5364 142.397 6.27312 142.003 6.09369 141.569C5.91426 141.136 5.8222 140.671 5.8228 140.201V128.493C5.8222 128.023 5.91426 127.558 6.09369 127.124C6.27312 126.691 6.5364 126.296 6.86845 125.965C7.2005 125.633 7.5948 125.369 8.02876 125.19C8.46272 125.011 8.92782 124.919 9.39741 124.919H25.989C26.4592 124.917 26.9252 125.007 27.3601 125.186C27.795 125.364 28.1901 125.628 28.5226 125.96C28.8551 126.292 29.1183 126.687 29.297 127.122C29.4757 127.557 29.5663 128.023 29.5636 128.493Z" fill="#3DA542"/>
<path d="M146.649 51.7229C155.439 35.5419 167.018 23.2938 177.539 17.608L166.973 0.9776C166.141 -0.325866 164.814 -0.325866 164.027 0.9776L106.204 92.0854C105.372 93.3888 106.069 93.7709 107.576 93.7709H135.161C134.734 81.9947 138.263 67.0723 146.649 51.7229Z" fill="#3DA542"/>
<path d="M181.136 27.9683C175.471 24.867 163.241 36.351 153.821 53.6331C144.401 70.9153 141.388 87.4109 147.054 90.5347C151.168 92.7596 158.092 86.894 165.489 77.2528V55.1838C165.489 52.8915 166.928 51.633 168.007 53.6331L174.167 65.2744C174.257 65.1396 174.302 65.0272 174.392 64.8924C183.811 47.6102 186.824 31.0922 181.136 27.9683Z" fill="#3DA542"/>
<path d="M224.841 92.0853L201.505 55.2961C199.288 62.7635 196.281 69.9733 192.534 76.8033C190.525 80.4733 188.326 84.0364 185.947 87.4783L190.354 93.7709H223.469C224.976 93.7709 225.673 93.3888 224.841 92.0853Z" fill="#3DA542"/>
</g>
<defs>
<clipPath id="clip0_3_163">
<rect width="331" height="154" fill="white"/>
</clipPath>
</defs>
</svg>
