<svg width="151" height="150" viewBox="0 0 151 150" fill="none" xmlns="http://www.w3.org/2000/svg">
<path d="M135.969 48.4863L127.517 46.2158L124.924 45.5273L115.432 42.9785V33.1348C115.432 28.4912 113.015 26.2793 108.576 26.2793H19.5137C15.0898 26.2793 12.6582 28.4912 12.6582 33.1348V103.931C12.6582 108.574 15.0752 110.786 19.5137 110.786H41.999L114.069 130.093C118.347 131.235 121.247 129.727 122.463 125.244L124.821 116.426L140.773 56.8652C142.004 52.3828 140.231 49.6289 135.969 48.4863ZM24.0986 103.931C20.4072 103.931 19.5283 101.704 19.5283 99.3604V37.7051C19.5283 34.0137 21.7549 33.1348 24.0986 33.1348H104.021C106.364 33.1348 108.591 34.0137 108.591 37.7051V99.3604C108.591 101.704 107.712 103.931 104.021 103.931H24.0986ZM117.043 119.077C116.442 121.333 115.007 123.252 111.447 122.3L115.212 123.311L68.4834 110.786H108.591C113.015 110.786 115.446 108.574 115.446 103.931V50.083L129.772 53.9209C132.028 54.5215 133.947 55.957 132.995 59.5166L134.182 55.1074L117.043 119.077ZM40.0801 44.5605C35.041 44.5605 30.9395 48.6475 30.9395 53.7012C30.9395 58.7402 35.0264 62.8418 40.0801 62.8418C45.1191 62.8418 49.2207 58.7549 49.2207 53.7012C49.2061 48.6475 45.1191 44.5605 40.0801 44.5605Z" fill="#3DA542"/>
<path d="M22.6482 108.032C21.8425 108.032 21.0368 107.769 20.3776 107.227C18.8396 105.967 18.6198 103.711 19.865 102.173L41.4128 75.835C42.614 74.3701 44.738 74.0918 46.2761 75.1904L60.0749 85.0488L79.5573 56.9092C80.2458 55.9131 81.3444 55.3272 82.6188 55.3565C83.8347 55.3858 84.948 56.0303 85.5778 57.0703L111.916 100.181C112.956 101.88 112.414 104.077 110.729 105.117C109.03 106.143 106.818 105.615 105.793 103.931L82.3259 65.5078L63.9128 92.1094C63.3708 92.9004 62.5212 93.4424 61.569 93.6035C60.6315 93.7647 59.6501 93.5449 58.8591 92.9883L44.8405 82.9688L25.4314 106.714C24.7136 107.578 23.6882 108.032 22.6482 108.032Z" fill="#3DA542"/>
</svg>
