<svg width="100" height="100" viewBox="0 0 100 100" fill="none" xmlns="http://www.w3.org/2000/svg">
<path fill-rule="evenodd" clip-rule="evenodd" d="M14.9635 41.6667C14.9635 27.8596 25.0126 16.6667 37.4088 16.6667C49.805 16.6667 59.854 27.8596 59.854 41.6667C59.854 55.474 49.805 66.6667 37.4088 66.6667C25.0126 66.6667 14.9635 55.474 14.9635 41.6667Z" fill="#3DA542"/>
<path fill-rule="evenodd" clip-rule="evenodd" d="M13.1527 76.2237C19.3046 73.2665 27.3762 72.3577 37.4075 72.3577C47.4475 72.3577 55.525 73.2682 61.679 76.232C68.3827 79.4601 72.4571 84.9587 74.5927 92.7223C75.5935 96.3611 73.1255 99.9999 69.7245 99.9999H5.10007C1.69497 99.9999 -0.778227 96.3556 0.22575 92.7101C2.36414 84.9454 6.44474 79.4485 13.1527 76.2237Z" fill="#3DA542"/>
<path fill-rule="evenodd" clip-rule="evenodd" d="M98.5303 1.62723C100.49 3.79692 100.49 7.3146 98.5303 9.4843L80.9663 28.9295C77.6206 32.6333 72.1968 32.6333 68.8512 28.9295L61.3237 20.5958C59.3641 18.4261 59.3641 14.9084 61.3237 12.7388C63.2834 10.5691 66.4609 10.5691 68.4206 12.7388L74.9087 19.9218L91.4334 1.62723C93.393 -0.542409 96.5706 -0.542409 98.5303 1.62723Z" fill="#3DA542"/>
</svg>
