<svg width="27" height="28" viewBox="0 0 27 28" fill="none" xmlns="http://www.w3.org/2000/svg">
<path d="M15.7066 7.92798H15.6807C15.4402 7.92798 15.2581 8.123 15.2581 8.36349C15.2581 8.60398 15.4661 8.799 15.7066 8.799C15.9471 8.799 16.1421 8.60398 16.1421 8.36349C16.1421 8.123 15.9471 7.92798 15.7066 7.92798Z" fill="#3DA542"/>
<path d="M19.2411 7.92798H19.2168C18.9763 7.92798 18.7934 8.123 18.7934 8.36349C18.7934 8.60398 19.0005 8.799 19.241 8.799C19.4815 8.799 19.6765 8.60398 19.6765 8.36349C19.6765 8.123 19.4816 7.92798 19.2411 7.92798Z" fill="#3DA542"/>
<path d="M22.7773 7.92798H22.7513C22.5108 7.92798 22.3288 8.123 22.3288 8.36349C22.3288 8.60398 22.5368 8.799 22.7773 8.799C23.0178 8.799 23.2128 8.60398 23.2128 8.36349C23.2128 8.123 23.0178 7.92798 22.7773 7.92798Z" fill="#3DA542"/>
<path d="M19.2483 20.0637C17.0059 18.799 16.3343 18.9024 14.6244 19.8691C13.747 20.4522 12.6905 20.0966 10.8545 18.6013C10.494 18.3076 10.1319 17.9801 9.77928 17.6292C9.4269 17.2754 9.09966 16.9133 8.80617 16.5526C7.42202 14.8541 7.04518 13.3041 7.49475 12.8369C8.81958 11.4123 8.5189 10.2426 7.34951 8.1694C6.6452 6.83712 5.87178 5.51103 4.84236 5.20674C4.09593 4.9875 2.9876 5.56186 2.65757 5.78092C1.80867 6.34635 1.00249 7.34645 0.553566 8.39125C-0.272165 10.3134 -0.0531457 12.63 0.427268 14.1573C1.21642 16.6611 3.1105 19.5604 5.49436 21.9132C7.848 24.2981 10.7473 26.1917 13.25 26.9787C14.0406 27.2282 15.0429 27.4074 16.0932 27.4074C17.0703 27.4074 18.0891 27.2522 19.0165 26.8539C20.0612 26.4042 21.0607 25.598 21.6247 24.7501C21.8441 24.4211 22.4206 23.313 22.1989 22.5634C21.8963 21.5358 20.5702 20.7622 19.2483 20.0637ZM18.8309 20.8281C19.6375 21.2545 21.139 22.0483 21.3633 22.8103C21.4093 22.9655 21.3534 23.2483 21.2502 23.5424L15.3581 20.455C16.4663 19.8414 16.915 19.7475 18.8309 20.8281ZM4.59594 6.04218C5.35914 6.26782 6.15299 7.76955 6.5851 8.58679C7.72671 10.6106 7.72309 11.2493 6.989 12.0961L3.81059 6.17467C4.05273 6.08512 4.29178 6.02607 4.46342 6.02607C4.51407 6.02603 4.55871 6.03117 4.59594 6.04218ZM18.6724 26.0537C16.9663 26.7869 14.8264 26.5629 13.5116 26.1479C11.1373 25.4012 8.37114 23.5886 6.11235 21.2994C6.11087 21.2979 6.10961 21.2966 6.10809 21.2951C3.81995 19.0372 2.0067 16.2708 1.25814 13.8957C0.844531 12.5807 0.621462 10.4401 1.35404 8.73482C1.72165 7.87926 2.36107 7.0672 3.03942 6.57991L6.48999 13.0088C6.30002 14.0424 6.89018 15.58 8.13082 17.1027C8.44234 17.4855 8.7894 17.8695 9.16346 18.2451C9.53774 18.6179 9.92156 18.9649 10.3043 19.2767C11.6491 20.3721 13.0613 21.2914 14.3836 20.9279L20.8601 24.3214C20.3778 25.0169 19.5475 25.6771 18.6724 26.0537Z" fill="#3DA542"/>
<path d="M26.1119 4.75279C24.1213 0.958655 19.414 -0.508846 15.6184 1.48027C11.8242 3.47156 10.3561 8.17922 12.3458 11.9742C12.49 12.2492 12.6546 12.5208 12.8368 12.7849L11.6604 14.8012C11.5783 14.9418 11.5815 15.1166 11.6689 15.254C11.7559 15.3916 11.9126 15.4679 12.0749 15.4545L15.4501 15.1561C16.6301 15.8124 17.9281 16.1416 19.2281 16.1416C20.4638 16.1416 21.7012 15.8438 22.8398 15.2465C26.6342 13.2555 28.1021 8.54802 26.1119 4.75279ZM22.4351 14.4752C20.3241 15.5828 17.8308 15.5298 15.7651 14.3336C15.6988 14.2951 15.6232 14.2749 15.5469 14.2749C15.5341 14.2749 15.5214 14.2756 15.5086 14.2766L12.8373 14.5127L13.7315 12.9801C13.8193 12.8293 13.8089 12.6407 13.7047 12.5008C13.4812 12.2003 13.2836 11.887 13.1173 11.5698C11.3504 8.20009 12.6537 4.02 16.023 2.25156C19.3929 0.484208 23.5726 1.78861 25.3406 5.15747C27.1077 8.52737 25.8042 12.7072 22.4351 14.4752Z" fill="#3DA542"/>
</svg>
