<svg width="80" height="90" viewBox="0 0 80 90" fill="none" xmlns="http://www.w3.org/2000/svg">
<g clip-path="url(#clip0_10_199)">
<path d="M60.2838 50.357C54.0919 58.4999 48.7541 67.2856 44.4838 76.4999V76.7142L44.2703 77.1427C43.4162 79.0713 41.4946 80.1428 39.573 80.1428H39.3595C37.4378 80.1428 35.5162 78.857 34.6622 77.1427C34.2351 76.2856 33.8081 75.4285 33.3811 74.5713C32.1 71.9999 30.8189 69.857 29.5378 67.4999C25.4811 61.7142 20.1432 56.7856 13.9514 53.5713L13.0973 53.1427L12.6703 52.9285L7.54595 49.9285L13.0973 48.4285L15.2324 47.7856C16.9405 47.357 18.6486 46.7142 20.3568 46.4999C20.5703 46.4999 20.9973 46.4999 21.2108 46.4999C22.4919 46.4999 23.5595 46.9285 24.627 47.357C27.6162 48.6428 30.6054 50.1428 33.5946 51.857C35.5162 53.1428 37.0108 54.857 38.5054 56.5713C39.1459 55.7142 39.7865 54.6428 40.427 53.9999C45.3378 47.7856 50.6757 41.7856 56.4405 36.4285H7.97297C3.91622 36.4285 0.5 39.6428 0.5 43.7142V57.857C0.713514 75.857 15.4459 90.2142 33.3811 89.9999C33.3811 89.9999 33.3811 89.9999 33.5946 89.9999H38.9324C56.8676 90.2142 71.6 75.857 72.027 57.857V43.7142C72.027 41.9999 71.3865 40.2856 70.1054 38.7856C66.4757 42.4285 63.273 46.4999 60.2838 50.357Z" fill="#328636"/>
<path d="M72.0271 26.7855C72.0271 26.7855 66.6892 30.8569 63.9135 32.7855C56.0135 39.6426 48.7541 47.3569 42.3487 55.7141C41.0676 57.4284 39.7865 59.1426 38.9325 61.0712C37.0108 58.4998 34.6622 55.9284 32.1 53.9998C29.3244 52.2855 26.5487 50.9998 23.5595 49.7141C22.7054 49.2855 21.6379 49.0712 20.5703 49.0712C18.2216 49.4998 15.873 50.1426 13.5244 50.9998L15.0189 51.8569C21.4244 55.2855 26.9757 60.4284 31.246 66.4284C33.1676 69.6426 34.8757 72.8569 36.5838 76.0712C37.0108 77.1426 38.0784 77.7855 39.146 77.7855C40.2135 77.7855 41.4946 77.1426 41.9216 76.0712C41.9216 75.8569 42.1352 75.6427 42.1352 75.4284C46.6189 65.9998 51.9568 56.9998 58.1487 48.8569C64.3406 40.7141 71.173 33.4284 78.8595 26.7855L79.2865 26.3569L72.0271 26.7855Z" fill="#F2F2F8"/>
<path d="M62.6324 18.2142C62.4189 17.5713 54.9459 -9.8329e-05 36.7973 -9.8329e-05C29.3243 -0.42867 22.0649 2.35704 16.727 7.4999C10.9622 13.2856 7.97296 22.0713 7.97296 32.7856H16.9405C16.9405 22.2856 20.1432 16.7142 22.9189 13.9285C26.5486 10.4999 31.673 8.78561 36.5838 8.9999C48.754 8.9999 53.8784 21.2142 54.0919 21.6428C54.9459 23.9999 57.7216 25.0713 59.8567 23.9999C62.4189 23.1428 63.7 20.5713 62.6324 18.2142Z" fill="#F2F2F8"/>
</g>
<defs>
<clipPath id="clip0_10_199">
<rect width="79" height="90" fill="white" transform="translate(0.5)"/>
</clipPath>
</defs>
</svg>
