<svg width="35" height="35" viewBox="0 0 35 35" fill="none" xmlns="http://www.w3.org/2000/svg">
<path d="M17.5 21.8874C20.2614 21.8874 22.5 19.7805 22.5 17.1815C22.5 14.5825 20.2614 12.4756 17.5 12.4756C14.7386 12.4756 12.5 14.5825 12.5 17.1815C12.5 19.7805 14.7386 21.8874 17.5 21.8874Z" stroke="#F2F2F8" stroke-width="2"/>
<path d="M3.34883 15.0044C4.15077 15.4794 4.66675 16.2887 4.66675 17.1815C4.66673 18.0744 4.15075 18.8837 3.34883 19.3588C2.80313 19.682 2.45153 19.9404 2.20139 20.2477C1.6534 20.9212 1.41155 21.772 1.52905 22.6135C1.61716 23.2445 2.01252 23.8901 2.80324 25.1815C3.59398 26.4727 3.98934 27.1183 4.52495 27.5058C5.2391 28.0224 6.14169 28.2504 7.03416 28.1397C7.4415 28.0892 7.85458 27.9312 8.42424 27.6474C9.2617 27.2301 10.2632 27.2135 11.0835 27.66C11.9037 28.1066 12.3891 28.9325 12.4244 29.8248C12.4485 30.432 12.5101 30.8484 12.6673 31.2063C13.0118 31.9903 13.6726 32.6133 14.5041 32.9381C15.128 33.1816 15.9186 33.1816 17.5001 33.1816C19.0816 33.1816 19.8722 33.1816 20.4961 32.9381C21.3276 32.6133 21.9884 31.9903 22.3329 31.2063C22.4901 30.8484 22.5517 30.432 22.5758 29.825C22.6111 28.9325 23.0964 28.1066 23.9168 27.66C24.737 27.2136 25.7384 27.2303 26.5757 27.6476C27.1456 27.9314 27.5586 28.0893 27.9659 28.1399C28.8584 28.2508 29.7611 28.0226 30.4752 27.506C31.0108 27.1186 31.4062 26.4728 32.197 25.1816C32.549 24.6068 32.8227 24.1599 33.0257 23.7852M31.6512 19.3589C30.8494 18.8839 30.3335 18.0746 30.3333 17.1818C30.3333 16.2888 30.8494 15.4794 31.6512 15.0044C32.197 14.6812 32.5485 14.4228 32.7986 14.1154C33.3466 13.4421 33.5884 12.5911 33.471 11.7497C33.3829 11.1186 32.9875 10.473 32.1967 9.18172C31.406 7.89046 31.0106 7.24484 30.475 6.85735C29.7609 6.3407 28.8582 6.11268 27.9658 6.22345C27.5585 6.27403 27.1454 6.43188 26.5757 6.71577C25.7382 7.13306 24.7368 7.1497 23.9166 6.70318C23.0964 6.25668 22.6111 5.43076 22.5758 4.53849C22.5517 3.93127 22.4901 3.515 22.3329 3.15705C21.9884 2.37297 21.3276 1.75001 20.4961 1.42522C19.8722 1.18164 19.0816 1.18164 17.5001 1.18164C15.9186 1.18164 15.128 1.18164 14.5041 1.42522C13.6726 1.75001 13.0118 2.37297 12.6673 3.15705C12.5101 3.51497 12.4485 3.93121 12.4244 4.53834C12.389 5.4307 11.9037 6.2567 11.0834 6.70318C10.2632 7.14967 9.26177 7.13298 8.4244 6.71572C7.85466 6.43182 7.44155 6.27394 7.03418 6.22337C6.1417 6.1126 5.23911 6.34062 4.52496 6.85727C3.98936 7.24476 3.594 7.89039 2.80326 9.18164C2.45124 9.7565 2.17758 10.2034 1.97449 10.578" stroke="#F2F2F8" stroke-width="2" stroke-linecap="round"/>
</svg>
