<svg width="33" height="27" viewBox="0 0 33 27" fill="none" xmlns="http://www.w3.org/2000/svg">
<path fill-rule="evenodd" clip-rule="evenodd" d="M21.2897 0.426022C21.8577 -0.142007 22.7787 -0.142007 23.3467 0.426022L31.5774 8.65668C32.6769 9.75626 31.8981 11.6364 30.3432 11.6364H1.95455C1.15123 11.6364 0.5 10.9852 0.5 10.1818C0.5 9.3785 1.15123 8.72727 1.95455 8.72727H27.5339L21.2897 2.48307C20.7217 1.91503 20.7217 0.994065 21.2897 0.426022ZM5.46612 17.4545H31.0455C31.8488 17.4545 32.5 16.8033 32.5 16C32.5 15.1967 31.8488 14.5455 31.0455 14.5455H2.65686C1.10183 14.5455 0.323062 16.4256 1.42263 17.5251L9.65329 25.7558C10.2213 26.3238 11.1423 26.3238 11.7103 25.7558C12.2784 25.1878 12.2784 24.2668 11.7103 23.6988L5.46612 17.4545Z" fill="#F2F2F8"/>
</svg>
