<svg width="32" height="32" viewBox="0 0 32 32" fill="none" xmlns="http://www.w3.org/2000/svg">
<g clip-path="url(#clip0_16_763)">
<path d="M16 -0.0351562C7.15897 -0.0351562 -0.0350342 7.15884 -0.0350342 15.9998C-0.0350342 24.8408 7.15897 32.0348 16 32.0348C24.841 32.0348 32.035 24.8408 32.035 15.9998C32.035 7.15884 24.841 -0.0351562 16 -0.0351562ZM16 30.9648C7.74797 30.9648 1.03497 24.2518 1.03497 15.9998C1.03497 7.74784 7.74797 1.03484 16 1.03484C24.252 1.03484 30.965 7.74784 30.965 15.9998C30.965 24.2518 24.252 30.9648 16 30.9648Z" fill="#F2F2F8"/>
<path d="M24.797 11.082C24.77 11.094 24.742 11.106 24.714 11.118C24.845 10.89 24.952 10.647 25.033 10.393C25.096 10.195 25.031 9.97895 24.868 9.84995C24.705 9.72095 24.48 9.70495 24.302 9.81095C23.78 10.121 23.219 10.349 22.629 10.492C21.936 9.85995 21.021 9.50195 20.076 9.50195C17.99 9.50195 16.293 11.198 16.293 13.283C16.293 13.349 16.294 13.414 16.298 13.48C14.039 13.209 11.952 12.065 10.501 10.285C10.397 10.158 10.239 10.084 10.074 10.102C9.91 10.115 9.764 10.207 9.681 10.349C9.347 10.923 9.169 11.581 9.169 12.251C9.169 12.918 9.319 13.541 9.601 14.083C9.454 14.053 9.306 14.108 9.189 14.199C9.071 14.292 9 14.458 9 14.611C9 15.768 9.547 16.829 10.422 17.532C10.415 17.539 10.408 17.546 10.401 17.554C10.284 17.686 10.246 17.87 10.299 18.038C10.655 19.148 11.493 20.006 12.541 20.411C11.478 20.953 10.241 21.163 9.054 21.027C8.83 21 8.605 21.137 8.526 21.356C8.448 21.575 8.531 21.819 8.728 21.945C10.315 22.962 12.148 23.499 14.03 23.499C20.189 23.499 23.869 18.497 23.869 13.66C23.869 13.6 23.869 13.54 23.868 13.48C24.469 13.014 24.988 12.455 25.415 11.816C25.539 11.631 25.525 11.387 25.382 11.216C25.239 11.046 25.001 10.993 24.797 11.082ZM23.068 12.829C22.93 12.928 22.852 13.09 22.86 13.26C22.866 13.393 22.869 13.527 22.869 13.66C22.869 18.005 19.563 22.499 14.03 22.499C12.992 22.499 11.971 22.317 11.007 21.965C12.152 21.767 13.225 21.291 14.159 20.559C14.326 20.429 14.392 20.207 14.325 20.007C14.258 19.806 14.072 19.67 13.86 19.666C12.932 19.649 12.094 19.178 11.594 18.439C11.84 18.424 12.076 18.383 12.336 18.313C12.56 18.252 12.712 18.045 12.704 17.813C12.696 17.582 12.53 17.386 12.303 17.34C11.224 17.123 10.363 16.293 10.091 15.264C10.136 15.28 10.177 15.294 10.216 15.308C10.467 15.398 10.666 15.47 11.044 15.481C11.275 15.482 11.467 15.346 11.536 15.133C11.605 14.92 11.523 14.689 11.338 14.565C10.597 14.07 10.172 13.226 10.172 12.249C10.172 12.002 10.205 11.758 10.268 11.523C11.997 13.318 14.356 14.402 16.856 14.528C17.011 14.545 17.164 14.469 17.264 14.349C17.365 14.229 17.403 14.068 17.368 13.915C17.32 13.708 17.296 13.495 17.296 13.28C17.296 11.746 18.545 10.499 20.079 10.499C20.846 10.499 21.586 10.819 22.11 11.378C22.228 11.503 22.402 11.559 22.572 11.526C22.793 11.482 23.011 11.428 23.226 11.364C23.112 11.46 22.989 11.548 22.86 11.626C22.657 11.747 22.568 11.993 22.644 12.216C22.721 12.439 22.947 12.579 23.176 12.551C23.277 12.539 23.378 12.525 23.478 12.509C23.345 12.622 23.209 12.728 23.068 12.829Z" fill="#F2F2F8"/>
</g>
<defs>
<clipPath id="clip0_16_763">
<rect width="32" height="32" fill="white"/>
</clipPath>
</defs>
</svg>
