<svg width="32" height="32" viewBox="0 0 32 32" fill="none" xmlns="http://www.w3.org/2000/svg">
<g clip-path="url(#clip0_16_759)">
<path d="M16 0C7.1625 0 0 7.1625 0 16C0 24.8375 7.1625 32 16 32C24.8375 32 32 24.8375 32 16C32 7.1625 24.8375 0 16 0ZM25.9875 25.9813C24.6875 27.2813 23.1812 28.3 21.5 29.0062C19.7625 29.7437 17.9125 30.1125 16 30.1125C14.0938 30.1125 12.2437 29.7375 10.5 29.0062C8.81875 28.2937 7.30625 27.275 6.0125 25.9813C4.7125 24.6813 3.69375 23.175 2.9875 21.4937C2.25 19.7562 1.875 17.9062 1.875 16C1.875 14.0938 2.25 12.2437 2.98125 10.5C3.69375 8.81875 4.7125 7.30625 6.00625 6.0125C7.3125 4.7125 8.81875 3.69375 10.5 2.98125C12.2437 2.25 14.0938 1.875 16 1.875C17.9062 1.875 19.7563 2.25 21.5 2.98125C23.1812 3.69375 24.6937 4.7125 25.9875 6.00625C27.2875 7.30625 28.3063 8.8125 29.0125 10.4937C29.75 12.2312 30.1187 14.0812 30.1187 15.9937C30.1187 17.9 29.7438 19.75 29.0125 21.4937C28.3 23.175 27.2812 24.6875 25.9875 25.9813Z" fill="#F2F2F8"/>
<path d="M21.2437 10.3877H10.7562C10.7562 10.3877 8 10.3877 8 13.1439V18.8627C8 18.8627 8 21.6189 10.7562 21.6189H21.2437C21.2437 21.6189 24 21.6189 24 18.8627V13.1439C24 13.1439 24 10.3877 21.2437 10.3877ZM13.8688 19.0814V12.9252L19.1062 16.0064L13.8688 19.0814Z" fill="#F2F2F8"/>
</g>
<defs>
<clipPath id="clip0_16_759">
<rect width="32" height="32" fill="white"/>
</clipPath>
</defs>
</svg>
